<svg id="Layer_1" data-name="Layer 1" xmlns="http://www.w3.org/2000/svg" width="87.9" height="10.1" viewBox="0 0 87.9 10.1">
  <title>Artboard 1</title>
  <path d="M85.4,4.4A21.10133,21.10133,0,0,0,75.4,2a14.76871,14.76871,0,0,0-2.1.1,9.9362,9.9362,0,0,0-6-2.1,10.58506,10.58506,0,0,1,2.2,2.9,14.97909,14.97909,0,0,0-.2,2.2,16.35251,16.35251,0,0,0,.2,2.2,10.58508,10.58508,0,0,1-2.2,2.9,9.716,9.716,0,0,0,6-2.1,14.76864,14.76864,0,0,0,2.1.1,22.34609,22.34609,0,0,0,10-2.4A10.95708,10.95708,0,0,1,88,5.2C86.9,4.8,86.1,4.6,85.4,4.4Zm-8.5,2A1.36707,1.36707,0,0,1,75.5,5a1.4,1.4,0,0,1,2.8,0C78.1,5.8,77.6,6.4,76.9,6.4ZM68.6,7a5.70208,5.70208,0,0,1-.1-1.3V4.3c0-.5.1-.9.1-1.3a6.94342,6.94342,0,0,0-1.3.5,11.73039,11.73039,0,0,0-1.1.5,1.77675,1.77675,0,0,0-.4,1,1.28386,1.28386,0,0,0,.4,1c.4.2.7.3,1.1.5A8.93,8.93,0,0,0,68.6,7ZM64.1,3.9,0,5,64.1,6.1a1.02782,1.02782,0,0,0,1-1.1A1.09527,1.09527,0,0,0,64.1,3.9Z"/>
</svg>
